<svg width="548" height="303" viewBox="0 0 548 303" fill="none" xmlns="http://www.w3.org/2000/svg">
<path d="M528.82 301.912L330.961 301.852L25.6766 301.763C25.6766 301.763 -9.92792 243.707 22.5651 165.262C43.7481 114.13 86.5738 76.4024 160.093 99.4725C175.237 104.225 198.925 101.19 229.381 81.5636C230.928 80.5657 232.468 79.5256 233.994 78.4434C234.828 77.85 235.659 77.2466 236.485 76.6267C246.858 68.8676 256.558 59.0564 264.552 46.9822C269.136 40.0599 274.547 33.9384 280.618 28.5952C284.403 25.2659 288.448 22.2383 292.712 19.5063C295.433 17.7621 298.244 16.1407 301.135 14.6378C308.824 10.6385 317.079 7.48227 325.713 5.14069C326.554 4.91319 327.395 4.69409 328.242 4.48084C330.21 3.98601 332.195 3.53531 334.197 3.12503C335.57 2.84148 336.949 2.57981 338.337 2.33649C340.033 2.03869 341.745 1.76706 343.462 1.5298H343.464C348.147 0.874055 352.897 0.431359 357.692 0.196049C358.601 0.15172 359.511 0.115594 360.424 0.0853256C361.005 0.0671648 361.585 0.0511521 362.166 0.0390448C363.95 0.000770306 365.738 -0.00918726 367.528 0.00897361C412.192 0.449521 458.922 18.4403 487.379 50.8266C501.704 67.1335 511.401 87.0876 513.863 110.289C514.772 118.855 514.697 127.865 513.504 137.298C513.469 137.586 513.434 137.869 513.394 138.151C513.334 138.607 513.27 139.068 513.201 139.527C512.957 141.257 512.67 143.003 512.343 144.763C511.623 148.668 511.133 152.766 509.603 156.685C477.958 237.811 569.093 230.609 528.82 301.912Z" fill="#DCEAFF"/>
<path d="M244.718 291.431H236.219C234.066 291.431 232.32 289.738 232.32 287.65V204.05C232.32 201.962 234.066 200.269 236.219 200.269H244.718C246.871 200.269 248.617 201.962 248.617 204.05V287.65C248.617 289.738 246.871 291.431 244.718 291.431Z" fill="#EBF3FA"/>
<path d="M266.929 291.431H258.43C256.277 291.431 254.531 289.738 254.531 287.65V204.05C254.531 201.962 256.276 200.269 258.43 200.269H266.929C269.082 200.269 270.828 201.962 270.828 204.05V287.65C270.828 289.738 269.082 291.431 266.929 291.431Z" fill="#EBF3FA"/>
<path d="M289.14 291.431H280.64C278.488 291.431 276.742 289.738 276.742 287.65V204.05C276.742 201.962 278.488 200.269 280.64 200.269H289.14C291.293 200.269 293.039 201.962 293.039 204.05V287.65C293.039 289.738 291.293 291.431 289.14 291.431Z" fill="#EBF3FA"/>
<path d="M311.351 291.431H302.852C300.699 291.431 298.953 289.738 298.953 287.65V204.05C298.953 201.962 300.699 200.269 302.852 200.269H311.351C313.504 200.269 315.25 201.962 315.25 204.05V287.65C315.25 289.738 313.504 291.431 311.351 291.431Z" fill="#EBF3FA"/>
<path d="M333.562 291.431H325.062C322.909 291.431 321.164 289.738 321.164 287.65V204.05C321.164 201.962 322.909 200.269 325.062 200.269H333.562C335.715 200.269 337.46 201.962 337.46 204.05V287.65C337.46 289.738 335.715 291.431 333.562 291.431Z" fill="#EBF3FA"/>
<path d="M355.773 291.431H347.273C345.12 291.431 343.375 289.738 343.375 287.65V204.05C343.375 201.962 345.12 200.269 347.273 200.269H355.773C357.926 200.269 359.671 201.962 359.671 204.05V287.65C359.671 289.738 357.926 291.431 355.773 291.431Z" fill="#EBF3FA"/>
<path d="M362.166 0.0388794V182.3H233.994V78.4432C234.828 77.8498 235.659 77.2464 236.485 76.6266C246.858 68.8674 256.558 59.0562 264.552 46.982C269.136 40.0598 274.547 33.9382 280.618 28.595C284.403 25.2657 288.448 22.2381 292.712 19.5062C295.433 17.7619 298.244 16.1405 301.135 14.6377C308.824 10.6384 317.079 7.4821 325.713 5.14052C326.554 4.91302 327.395 4.69392 328.242 4.48068C330.21 3.98584 332.195 3.53514 334.197 3.12486C335.57 2.84131 336.949 2.57964 338.337 2.33633C340.033 2.03853 341.745 1.76689 343.462 1.52963H343.464C348.147 0.873886 352.897 0.431193 357.692 0.195883C358.601 0.151555 359.511 0.115428 360.424 0.0851602C361.005 0.0669993 361.585 0.0509866 362.166 0.0388794Z" fill="#EBF3FA"/>
<path d="M362.166 0.038864C361.585 0.0509712 361.005 0.0669839 360.424 0.0851448V179.381H236.485V76.6267C235.659 77.2464 234.828 77.85 233.994 78.4434C232.467 79.5257 230.928 80.5657 229.381 81.5636V186.748H367.528V0.00878977C365.738 -0.00937109 363.95 0.00058945 362.166 0.038864Z" fill="#C2D2FF"/>
<path d="M375.228 187.121H222.156V184.147C222.156 182.018 223.936 180.292 226.132 180.292H371.348C373.491 180.292 375.228 181.977 375.228 184.055V187.121Z" fill="#C2D2FF"/>
<path d="M301.136 14.6378V181.664H292.713V19.5063C295.434 17.7621 298.244 16.1407 301.136 14.6378Z" fill="#C2D2FF"/>
<path d="M298.303 97.4331H297.626C297.171 97.4331 296.797 97.0771 296.783 96.6291L296.485 87.2409C296.47 86.7727 296.852 86.3852 297.328 86.3852H298.626C299.103 86.3852 299.485 86.774 299.469 87.2431L299.146 96.6313C299.13 97.0785 298.758 97.4331 298.303 97.4331Z" fill="#9DB0F4"/>
<path d="M349.382 93.7616L360.462 95.227L348.964 179.434L337.885 177.969L349.382 93.7616Z" fill="#D2E4FF"/>
<path d="M349.168 177.946L348.964 179.435L337.884 177.97L338.088 176.48L349.168 177.946Z" fill="#F99746"/>
<path d="M360.564 94.4822L360.36 95.9718L349.28 94.5064L349.484 93.017L360.564 94.4822Z" fill="#F99746"/>
<path d="M344.141 173.451C343.041 173.305 342.269 172.309 342.417 171.227C342.565 170.144 343.577 169.384 344.677 169.529C345.777 169.675 346.549 170.671 346.402 171.754C346.254 172.837 345.242 173.596 344.141 173.451Z" fill="#F99746"/>
<path d="M353.571 104.384C352.471 104.239 351.699 103.243 351.847 102.16C351.995 101.077 353.007 100.317 354.107 100.463C355.207 100.608 355.98 101.604 355.832 102.687C355.684 103.77 354.672 104.53 353.571 104.384Z" fill="#F99746"/>
<path d="M344.347 130.637C346.787 131.434 348.384 133.848 348.029 136.448C347.674 139.045 345.486 140.959 342.919 141.093L344.347 130.637Z" fill="#F99746"/>
<path d="M309.131 179.428H278.096C276.673 179.428 275.519 178.309 275.519 176.929V176.893C275.519 175.513 276.673 174.394 278.096 174.394H309.131C310.554 174.394 311.708 175.513 311.708 176.893V176.929C311.708 178.309 310.554 179.428 309.131 179.428Z" fill="#ED7D2B"/>
<path d="M250.899 179.424H285.498C287.417 179.424 288.988 177.9 288.988 176.038V150.412C288.988 148.55 287.417 147.027 285.498 147.027H250.899C248.979 147.027 247.408 148.55 247.408 150.412V176.038C247.408 177.9 248.979 179.424 250.899 179.424Z" fill="#ED7D2B"/>
<path d="M279.892 147.169C279.892 147.169 271.278 141.847 263.035 141.789C257.666 141.75 251.548 146.943 251.18 146.999C250.247 147.141 254.29 147.188 254.29 147.188C254.29 147.188 260.349 143.718 263.071 143.636C266.355 143.537 274.707 147.472 274.707 147.472L279.892 147.169Z" fill="#F99746"/>
<path d="M246.856 179.424H281.455C283.375 179.424 284.946 177.9 284.946 176.038V150.412C284.946 148.55 283.375 147.027 281.455 147.027H246.856C244.936 147.027 243.366 148.55 243.366 150.412V176.038C243.366 177.9 244.936 179.424 246.856 179.424Z" fill="#F99746"/>
<path d="M390.617 233.063H344.293V230.247H390.617C395.499 230.247 399.471 226.395 399.471 221.66V3.62247H402.374V221.66C402.374 227.948 397.1 233.063 390.617 233.063Z" fill="#EBF3FA"/>
<path d="M378.455 231.396H375.552V299.891H378.455V231.396Z" fill="#EBF3FA"/>
<path d="M368.591 299.891H318.949L317.095 259.891H370.275L368.591 299.891Z" fill="#9DB0F4"/>
<path d="M370.503 261.441H316.075C315.639 261.441 315.285 261.098 315.285 260.674V260.435C315.285 260.012 315.639 259.668 316.075 259.668H370.503C370.94 259.668 371.294 260.012 371.294 260.435V260.674C371.294 261.098 370.94 261.441 370.503 261.441Z" fill="#C2D2FF"/>
<path d="M364.618 273.324H322.64V284.298H364.618V273.324Z" fill="#C2D2FF"/>
<path d="M398.491 299.891H355.8L354.205 249.256H399.94L398.491 299.891Z" fill="#FF9E55"/>
<path d="M400.815 247.922H352.648V251.812H400.815V247.922Z" fill="#E58638"/>
<path d="M395.074 266.26H358.973V280.153H395.074V266.26Z" fill="#FFE4CC"/>
<path d="M186.028 296.259L229.377 288.615V300.484H185.821C185.821 300.484 186.236 296.058 186.028 296.259Z" fill="#F99746"/>
<path d="M258.829 288.615H229.377V300.484H258.829V288.615Z" fill="#E58638"/>
<path d="M408.224 132.968L404.152 123.002C403.776 122.08 404.245 121.026 405.196 120.661L405.246 120.642C406.197 120.276 407.283 120.732 407.66 121.654L411.731 131.62C412.108 132.542 411.639 133.595 410.688 133.96L410.637 133.98C409.687 134.345 408.601 133.89 408.224 132.968Z" fill="#3348A8"/>
<path d="M396.941 118.339L409.62 113.465C410.666 113.064 411.859 113.564 412.274 114.578L413.431 117.411C413.845 118.425 413.329 119.583 412.284 119.985L399.605 124.858C398.56 125.26 397.366 124.759 396.952 123.745L395.794 120.912C395.38 119.898 395.896 118.74 396.941 118.339Z" fill="#3348A8"/>
<path d="M396.358 122.326L412.838 115.992L409.501 107.823L393.021 114.156L396.358 122.326Z" fill="#AFCDFB"/>
<path d="M393.933 116.182C393.933 116.182 395.707 116.735 397.776 115.342C399.846 113.949 398.874 112.843 401.366 113.212C403.858 113.581 406.012 112.516 406.392 111.532C406.772 110.549 410.742 110.754 410.742 110.754L409.516 107.826L393.036 114.16L393.933 116.182Z" fill="white"/>
<path d="M410.446 132.156C410.545 132.399 410.423 132.674 410.173 132.77C409.922 132.866 409.639 132.747 409.54 132.505C409.441 132.262 409.563 131.987 409.813 131.891C410.064 131.795 410.347 131.914 410.446 132.156Z" fill="#98C6F4"/>
<path d="M403.531 85.6775C403.531 85.6775 400.778 80.1318 398.544 78.4102C396.31 76.6888 390.346 77.1085 390.117 77.549C389.408 78.9126 394.903 81.0373 395.537 82.289C396.17 83.5407 393.537 83.4148 395.559 85.59C397.267 87.4272 401.354 89.1786 401.354 89.1786L403.531 85.6775Z" fill="#FFB27D"/>
<path d="M401.152 85.0444C402.599 82.8596 403.032 82.7463 403.032 82.7463C403.032 82.7463 426.973 92.008 429.257 92.7813C431.542 93.5546 465.699 95.5021 465.699 95.5021L476.007 117.477C476.007 117.477 430.489 107.409 424.74 105.339C415.239 101.919 399.998 88.5244 399.998 88.5244C399.998 88.5244 400.015 86.7605 401.152 85.0444Z" fill="#E58638"/>
<path d="M460.627 290.515C460.627 290.515 460.105 298.665 458.544 300.582H434.531C434.683 299.77 435.362 297.763 438.365 297.254C442.159 296.614 448.511 294.028 450.807 289.164C453.226 284.047 460.627 290.515 460.627 290.515Z" fill="#3348A8"/>
<path d="M503.241 289.378C503.241 289.378 504.737 299.965 502.682 300.148C502.408 300.173 493.549 300.168 490.081 300.148C485.763 300.124 478.867 300.174 478.867 300.174C477.975 300.21 477.39 299.273 477.844 298.528C478.343 297.71 479.294 296.836 481.107 296.498C484.888 295.792 491.191 293.097 493.4 288.196C495.724 283.039 503.241 289.378 503.241 289.378Z" fill="#3348A8"/>
<path d="M449.335 182.039C449.335 182.039 455.373 202.532 472.679 238.118C489.984 273.705 491.319 289.922 491.319 289.922L503.241 289.378C503.241 289.378 502.12 247.021 493.945 229.062C485.771 211.104 484.105 161.961 484.105 161.961L449.335 182.039Z" fill="#3348A8"/>
<path d="M439.641 164.407C439.641 164.407 439.16 196.139 444.821 235.1C450.481 274.062 448.563 290.6 448.563 290.6L462.12 291.037C462.12 291.037 470.222 252.061 467.899 232.56C465.576 213.059 478.994 165.644 478.994 165.644L439.641 164.407Z" fill="#3348A8"/>
<path d="M466.392 90.1499L459.998 94.7434L450.756 92.8564C450.885 92.039 451.495 88.6513 452.05 85.5829C452.084 85.4019 452.117 85.2209 452.149 85.0441C452.624 82.4331 453.035 80.1903 453.035 80.1903L461.667 76.0178L464.885 74.4622C464.876 74.5171 464.635 77.3597 464.602 77.7747C463.998 85.1437 466.392 90.1499 466.392 90.1499Z" fill="#FFB27D"/>
<path d="M451.404 87.8322C451.606 87.7494 463.975 84.2094 465.318 84.6396C466.662 85.07 467.457 87.5914 467.457 87.5914L448.362 92.867C448.362 92.867 448.819 88.8877 451.404 87.8322Z" fill="#E58638"/>
<path d="M484.708 168.324C482.615 177.6 438.905 148.494 439.487 142.834C439.551 142.212 439.616 141.585 439.68 140.964C440.486 133.082 441.26 125.37 441.314 120.336C441.356 115.97 441.976 111.506 442.803 107.451C443.561 103.707 444.496 100.309 445.307 97.6628C445.879 95.7985 446.947 94.1568 448.362 92.8672C449.365 91.9506 450.546 91.2149 451.848 90.7127C452.201 90.5676 452.564 90.4485 452.932 90.345C458.197 88.8638 465.48 87.0305 467.456 87.5898C472.806 89.1176 476.779 98.2481 479.593 109.89C484.858 131.683 486.075 162.28 484.708 168.324Z" fill="#F99746"/>
<path d="M463.954 77.9046C462.059 81.4225 454.996 84.4644 452.05 85.5827C452.084 85.4017 452.117 85.2207 452.149 85.044C452.625 82.4329 453.036 80.1901 453.036 80.1901L461.667 76.0176C463.575 75.9893 464.736 76.457 463.954 77.9046Z" fill="#FCA56B"/>
<path d="M448.841 79.7002C448.841 79.7002 464.413 84.4114 467.289 74.9608C470.165 65.5101 474.111 59.7533 464.291 56.3457C454.47 52.9379 451.432 55.9887 449.681 58.9167C447.93 61.8449 444.865 78.2311 448.841 79.7002Z" fill="#FFB27D"/>
<path d="M450.293 58.0063C450.293 58.0063 451.286 69.0038 453.63 68.5264C455.975 68.0489 458.102 67.6951 457.759 71.0101C457.415 74.3251 454.164 78.1534 461.39 78.7396C468.617 79.326 479.006 61.2499 477.021 57.8273C471.292 47.9524 442.013 45.9594 450.293 58.0063Z" fill="#1E1E1E"/>
<path d="M440.806 164.407C445.135 165.925 440.732 160.235 440.806 159.049C441.143 153.834 439.034 147.241 439.68 140.964L466.118 125.637C466.118 125.637 472.39 164.164 440.806 164.407Z" fill="#E58638"/>
<path d="M484.708 168.324C473.422 188.612 471.625 196.359 471.625 196.359C461.802 195.273 444.97 176.543 439.631 171.543C439.631 171.543 438.906 148.494 439.487 142.833L447.646 142.606C447.646 142.606 462.394 146.231 466.217 141.311C470.04 136.391 468.385 112.242 468.385 112.242L479.593 109.89C484.858 131.683 487.738 162.879 484.708 168.324Z" fill="#3348A8"/>
<path d="M417.741 129.447C417.741 129.447 412.368 125.922 411.349 125.615C410.33 125.308 409.734 123.778 409.559 123.535C408.947 122.68 408.649 124.207 408.923 124.773C409.24 125.428 409.7 126.367 408.208 126.157C407.921 126.116 405.483 126.06 404.977 127.146C404.47 128.232 404.025 131.954 406.601 133.082C409.178 134.211 415.539 133.191 415.998 133.32C419.888 134.417 417.741 129.447 417.741 129.447Z" fill="#FFB27D"/>
<path d="M417.691 128.494C417.691 128.494 443.912 132.818 446.236 131.721C449.944 129.969 444.797 104.166 444.797 104.166C444.797 104.166 444.575 98.3184 451.618 96.9392C457.738 95.7405 463.643 100.187 463.643 100.187C463.643 100.187 469.013 104.848 468.327 110.017C466.806 121.475 464.44 144.781 456.539 148.353C446.347 152.96 416.856 135.576 416.856 135.576C416.856 135.576 415.874 134.41 416.013 132.243C416.136 130.333 417.691 128.494 417.691 128.494Z" fill="#F99746"/>
<path d="M470.558 111.786L468.385 112.242C468.385 112.242 463.793 92.9603 448.362 92.8672C449.365 91.9505 450.546 91.2149 451.848 90.7127C457.503 92.1835 467.322 96.8706 470.558 111.786Z" fill="#3348A8"/>
<path d="M401.491 80.1084L392.391 85.3534C391.549 85.8386 390.468 85.5951 389.988 84.8121L389.963 84.7705C389.483 83.9876 389.78 82.9499 390.621 82.4648L399.722 77.2198C400.564 76.7346 401.645 76.9783 402.124 77.7611L402.15 77.8025C402.63 78.5856 402.333 79.6233 401.491 80.1084Z" fill="#3348A8"/>
<path d="M391.789 97.329L379.489 77.2526C378.72 75.9972 379.149 74.3598 380.444 73.6136L381.69 72.8954C382.984 72.1494 384.672 72.5661 385.442 73.8216L397.742 93.8979C398.511 95.1534 398.081 96.7908 396.787 97.5369L395.541 98.2552C394.246 99.0013 392.558 98.5844 391.789 97.329Z" fill="#3348A8"/>
<path d="M396.165 97.8948L388.704 102.196L373.609 77.5535L375.144 76.6687L381.067 73.2546L396.165 97.8948Z" fill="#AFCDFB"/>
<path d="M390.828 100.881L388.704 102.196L373.609 77.5537L375.144 76.6689C376.031 77.2883 379.989 80.2304 380.291 83.4304C380.628 87.036 385.189 89.4522 385.316 91.3571C385.443 93.2619 385.316 96.027 387.723 96.8259C390.131 97.6246 390.828 100.881 390.828 100.881Z" fill="white"/>
<path d="M400.402 78.2554C400.624 78.1277 400.91 78.1984 401.042 78.4134C401.174 78.6282 401.101 78.9061 400.879 79.034C400.657 79.1617 400.371 79.091 400.239 78.876C400.107 78.661 400.18 78.3833 400.402 78.2554Z" fill="#98C6F4"/>
<path d="M397.569 84.0662C397.54 84.0412 396.357 82.6575 395.191 81.3167C394.332 80.3304 393.8 79.0521 393.426 78.6703C392.542 77.7697 391.791 79.8002 393.099 82.3652C394.206 84.5365 396.265 86.3102 396.984 86.7865C397.702 87.2625 397.569 84.0662 397.569 84.0662Z" fill="#FFB27D"/>
<path d="M195.131 212.822C194.77 212.669 194.606 212.262 194.764 211.912L197.928 204.897C198.178 204.342 197.916 203.694 197.344 203.452L181.424 196.697C180.133 196.149 179.542 194.685 180.107 193.432L182.49 188.149C183.055 186.896 184.565 186.323 185.856 186.871L192.464 189.675C192.825 189.827 192.989 190.235 192.831 190.584C192.674 190.934 192.254 191.093 191.893 190.94L185.285 188.137C184.713 187.894 184.045 188.148 183.795 188.702L181.412 193.986C181.162 194.54 181.424 195.188 181.995 195.431L197.915 202.185C199.207 202.733 199.798 204.198 199.233 205.451L196.069 212.466C195.911 212.816 195.491 212.975 195.131 212.822Z" fill="#C2D2FF"/>
<path d="M194.732 215.475L193.113 214.788C192.507 214.531 192.228 213.84 192.493 213.253L196.093 205.271C196.358 204.683 197.07 204.413 197.676 204.67L199.296 205.357C199.902 205.614 200.18 206.305 199.915 206.892L196.315 214.874C196.05 215.462 195.338 215.732 194.732 215.475Z" fill="#F99746"/>
<path d="M219.864 199.097L217.625 204.062C217.042 205.355 215.488 205.943 214.155 205.377L187.663 194.137C186.331 193.572 185.722 192.066 186.305 190.773L188.544 185.809C189.127 184.516 190.681 183.927 192.012 184.492L218.505 195.732C219.838 196.298 220.447 197.804 219.864 199.097Z" fill="#C2D2FF"/>
<path d="M219.864 199.097L219.094 200.806C218.51 202.099 216.957 202.688 215.623 202.122L189.131 190.882C187.8 190.317 187.191 188.811 187.774 187.518L188.545 185.809C189.128 184.516 190.682 183.927 192.013 184.492L218.505 195.732C219.838 196.298 220.448 197.804 219.864 199.097Z" fill="#EBF3FA"/>
<path d="M147.471 219.205C147.471 219.205 153.231 220.015 154.567 221.472C155.903 222.93 156.738 224.063 155.903 224.711C155.068 225.359 142.378 222.201 142.378 222.201L147.471 219.205Z" fill="#FFB27D"/>
<path d="M133.612 199.447L149.141 218.719C149.141 218.719 147.805 221.31 143.463 221.796C139.122 222.282 129.939 219.529 129.939 218.719C129.939 217.909 133.612 199.447 133.612 199.447Z" fill="#E58638"/>
<path d="M182.764 241.194C178.248 246.241 168.723 249.505 150.347 250.331C148.872 250.399 147.387 250.454 145.896 250.498C144.361 250.543 142.823 250.575 141.285 250.595C136.291 250.662 131.322 250.607 126.586 250.452C121.995 250.3 117.622 250.056 113.66 249.737C105.91 249.112 99.7241 248.202 96.5281 247.159C95.5714 246.848 94.8826 246.525 94.4994 246.192C94.1713 245.908 93.9059 245.575 93.7056 245.196C92.5459 243.111 93.1521 239.695 94.5522 235.928C96.5936 230.446 100.34 224.231 102.862 220.341C103.368 219.564 103.819 218.884 104.202 218.317C104.971 217.175 105.45 216.507 105.45 216.507C105.45 216.507 114.033 217.28 125.784 218.757C128.181 219.057 130.713 219.39 133.328 219.748C158.595 223.214 183.771 229.443 183.746 237.708C183.743 238.967 183.829 240.004 182.764 241.194Z" fill="#3348A8"/>
<path d="M151.478 250.231C149.943 250.277 142.823 250.575 141.285 250.595C136.291 250.662 131.322 250.607 126.586 250.452L122.133 233.049C129.02 242.367 149.264 249.631 151.478 250.231Z" fill="#3348A8"/>
<path d="M136.595 300.779H161.089C160.703 299.874 159.77 298.695 157.497 298.309C153.639 297.653 146.941 295.629 147.8 290.228C148.67 284.754 139.274 284.047 139.274 284.047C139.274 284.047 135.366 298.695 136.595 300.779Z" fill="#3348A8"/>
<path d="M183.161 240.299C183.161 240.299 152.776 286.663 150.249 292.173C150.249 292.173 139.91 293.106 137.423 285.943C137.423 285.943 155.485 237.014 163.424 232.982C171.362 228.949 183.161 240.299 183.161 240.299Z" fill="#3348A8"/>
<path d="M121.885 142.686C121.885 142.686 132.349 156.575 141.675 157.318C141.675 157.318 140.484 152.09 137.731 148.794C138.471 147.636 139.114 146.577 139.666 145.633C141.498 142.485 142.31 140.602 142.31 140.602L138.02 133.074L137.134 129.027C136.409 130.928 135.56 132.681 134.612 134.126C129.725 141.569 121.885 142.686 121.885 142.686Z" fill="#FFB27D"/>
<path d="M134.204 134.053C134.204 134.053 132.686 141.011 139.666 145.633C141.498 142.484 142.309 140.602 142.309 140.602L138.02 133.074C134.591 132.582 134.204 134.053 134.204 134.053Z" fill="#ED975D"/>
<path d="M143.615 144.799C143.615 144.799 130.49 137.864 135.069 130.002C139.647 122.141 141.037 115.952 149.61 120.047C158.184 124.143 158.051 128.027 157.181 131.011C156.31 133.996 147.147 146.4 143.615 144.799Z" fill="#FFB27D"/>
<path d="M135.115 114.351C135.043 114.154 134.788 113.921 134.129 113.632C134.129 113.632 134.799 113.503 135.526 113.755C136.034 112.885 137.183 111.439 138.953 111.646C138.953 111.646 137.906 111.776 137.402 112.714C140.021 111.525 144.569 111.649 155.304 116.661C169.451 123.266 160.972 130.671 158.645 131.06C156.318 131.45 152.759 126.658 149.128 125.614C145.497 124.57 142.831 129.331 141.362 129.571C139.894 129.812 140.848 128.771 139.518 127.446C138.188 126.121 136.984 128.702 136.767 130.592C136.551 132.482 133.429 133.913 133.429 133.913C133.429 133.913 133.429 133.913 132.133 130.691C130.837 127.469 132.738 116.592 134.615 114.825C134.781 114.669 134.946 114.51 135.115 114.351Z" fill="black"/>
<path d="M56.7502 285.621C56.7502 285.621 53.6972 290.115 52.9872 291.571C52.2771 293.027 53.6702 296.126 55.7641 296.593C57.6101 297.004 57.8864 300.18 57.8864 300.18H48.9358C47.9885 300.18 47.1338 299.674 46.7688 298.894C45.5066 296.199 45.2177 292.696 44.9638 291.524C44.43 289.06 43.3724 286.992 43.8397 284.482C44.3054 281.981 48.7137 280.534 56.7502 280.558C65.5784 280.584 56.7502 285.621 56.7502 285.621Z" fill="#3348A8"/>
<path d="M83.064 231.433C89.8136 238.37 139.375 224.019 135.221 220.362C134.165 219.433 134.526 218.318 134.097 216.821C132.04 209.725 136.134 197.583 137.889 192.876C138.3 191.785 138.581 191.096 138.634 190.956C140.31 186.562 141.606 181.988 142.454 177.568C144.088 169.086 144.058 161.198 141.823 156.365C141.808 156.34 141.804 156.318 141.789 156.299C132.504 153.667 127.393 140.419 127.393 140.419C127.393 140.419 97.9808 148.522 87.3056 189.227C87.3056 189.227 86.7545 191.822 86.0742 195.718H86.0704C85.865 196.913 85.6447 198.232 85.4243 199.637C84.2841 206.88 83.6229 216.169 82.9464 223.084C82.9199 223.324 82.8969 223.567 82.8705 223.817C82.5319 226.799 81.943 230.279 83.064 231.433Z" fill="#F99746"/>
<path d="M122.091 224.549C122.091 224.549 117.15 225.181 107.185 225.892C96.8595 226.634 85.9142 228.213 84.1356 231.577C83.5465 232.692 83.957 235.511 85.1085 239.407C87.6548 248.019 93.8267 261.886 100.873 274.181C82.7712 275.198 58.1441 279.074 58.1441 279.074C54.1158 283.492 55.803 288.662 55.803 288.662C57.0951 288.672 60.9791 289.204 66.2809 290.034C85.4884 293.032 108.879 299.199 123.385 299.199C126.557 299.199 128.931 297.013 129.897 294.157V294.154C135.856 276.56 122.091 224.549 122.091 224.549Z" fill="#3348A8"/>
<path d="M85.1084 240.714C95.0997 240.408 120.16 228.477 119.75 228.381C115.083 227.268 110.91 226.497 107.185 226.01C96.8594 226.818 85.9142 228.536 84.1356 232.196C83.5465 233.408 83.957 236.475 85.1084 240.714Z" fill="#3348A8"/>
<path d="M117.192 168.235C117.192 168.235 117.773 212.324 134.096 216.821C132.04 209.725 136.134 197.583 137.889 192.876C133.682 181.538 125.937 170.1 117.192 168.235Z" fill="#E58638"/>
<path d="M122.459 142.404C122.459 142.404 135.031 144.941 136.259 155.626C137.153 163.409 128.381 181.031 128.381 181.031L126.71 179.41C126.71 179.41 134.411 157.653 133.226 153.951C131.708 149.205 124.479 142.105 117.831 144.941L122.459 142.404Z" fill="#3348A8"/>
<path d="M83.0641 231.433C89.8137 238.37 140.443 224.171 136.289 220.515C135.233 219.586 134.526 218.318 134.096 216.821C132.04 209.725 136.134 197.583 137.889 192.876C138.3 191.785 138.581 191.096 138.634 190.956L136.076 188.479L126.708 179.411C126.708 179.411 123.938 182.459 118.701 185.917C111.837 190.454 100.736 195.696 86.0737 195.718H86.0698C85.8645 196.912 85.6442 198.232 85.4237 199.636C84.2836 206.879 83.6224 216.168 82.9459 223.083C82.9193 223.323 82.8964 223.566 82.87 223.817C82.5319 226.799 81.943 230.279 83.0641 231.433Z" fill="#3348A8"/>
<path d="M118.7 185.917C120.574 198.734 124.762 214.248 134.096 216.821C132.04 209.725 136.133 197.583 137.889 192.876C137.342 191.406 136.737 189.931 136.076 188.479L126.708 179.411C126.708 179.411 123.938 182.459 118.7 185.917Z" fill="#3348A8"/>
<path d="M195.225 214.913C192.167 214.913 186.466 212.207 185.952 212.159C181.592 211.753 185.797 207.592 185.797 207.592C185.797 207.592 192.65 206.131 193.8 206.217C194.175 206.246 194.799 206.367 195.473 206.528L194.736 208.233C194.736 208.233 199.513 208.937 199.573 210.225C199.635 211.515 196.728 214.913 195.225 214.913Z" fill="#FFB27D"/>
<path d="M187.142 209.651C188.192 206.706 186.729 205.787 186.729 205.787C186.729 205.787 156.804 192.022 154.356 190.506C151.909 188.99 135.458 159.929 135.458 159.929C135.458 159.929 129.359 148.046 121.592 148.285C114.842 148.493 111.091 152.574 109.01 156.852C106.531 161.951 107.577 168.008 111.569 172.105C120.529 181.302 138.524 199.514 143.186 202.278C153.562 208.431 184.655 213.406 184.655 213.406C184.655 213.406 186.317 211.965 187.142 209.651Z" fill="#F99746"/>
<path d="M547.221 302.333H0.779171C0.350727 302.333 0 301.993 0 301.578V300.869C0 300.454 0.350526 300.114 0.779171 300.114H547.221C547.65 300.114 548 300.454 548 300.869V301.578C548 301.993 547.649 302.333 547.221 302.333Z" fill="#2E3552"/>
<path d="M327.142 280.543C324.641 291.437 316.128 300.144 308.128 299.991C300.128 299.838 295.671 290.882 298.173 279.989C300.675 269.095 309.188 260.388 317.187 260.541C325.187 260.694 329.644 269.65 327.142 280.543Z" fill="#8097D8"/>
<path d="M325.345 280.141C322.843 291.035 314.33 299.742 306.331 299.589C298.331 299.435 293.874 290.48 296.376 279.586C298.878 268.692 307.39 259.985 315.39 260.139C323.39 260.292 327.847 269.247 325.345 280.141Z" fill="#C2D2FF"/>
<path d="M307.101 296.737C307.041 296.737 306.982 296.737 306.922 296.735C304.353 296.686 302.126 295.588 300.482 293.558C297.859 290.32 297.053 285.079 298.325 279.538C300.468 270.209 307.794 262.717 314.66 262.858C317.229 262.907 319.456 264.006 321.1 266.035C323.723 269.273 324.529 274.515 323.257 280.055C321.133 289.303 313.913 296.737 307.101 296.737ZM314.481 263.058C307.76 263.058 300.632 270.421 298.528 279.582C297.269 285.064 298.061 290.243 300.646 293.434C302.25 295.414 304.422 296.486 306.926 296.534C306.985 296.535 307.044 296.536 307.102 296.536C313.822 296.536 320.951 289.173 323.054 280.012C324.314 274.529 323.522 269.351 320.937 266.16C319.333 264.179 317.161 263.107 314.656 263.059C314.598 263.058 314.539 263.058 314.481 263.058Z" fill="#8097D8"/>
</svg>
